<?xml version="1.0" standalone="no"?>
<!DOCTYPE svg PUBLIC "-//W3C//DTD SVG 20010904//EN"
 "http://www.w3.org/TR/2001/REC-SVG-20010904/DTD/svg10.dtd">
<svg version="1.0" xmlns="http://www.w3.org/2000/svg"
 width="540.000000pt" height="540.000000pt" viewBox="0 0 540.000000 540.000000"
 preserveAspectRatio="xMidYMid meet">

<g transform="translate(0.000000,540.000000) scale(0.100000,-0.100000)"
fill="#000000" stroke="none">
<path d="M1807 5023 c-2 -4 -289 -674 -637 -1488 -347 -814 -658 -1534 -690
-1600 -98 -202 -180 -313 -265 -358 -22 -11 -78 -31 -125 -43 l-85 -22 -3 -51
-3 -51 550 0 551 0 0 50 c0 33 -4 50 -12 50 -38 0 -210 32 -251 46 -63 22
-122 77 -136 129 -23 86 3 171 184 590 l133 310 684 2 683 3 128 -308 c204
-491 223 -578 145 -668 -50 -57 -120 -84 -260 -100 l-58 -6 0 -49 0 -49 685 0
c377 0 685 -2 685 -5 0 -23 -69 -322 -96 -417 -64 -224 -125 -345 -214 -421
-54 -46 -123 -66 -159 -46 -36 20 -37 41 -4 90 21 32 28 55 28 91 0 43 -4 52
-41 89 -86 86 -201 70 -278 -39 -39 -55 -48 -157 -19 -223 83 -187 331 -227
562 -92 86 51 226 189 290 288 132 204 274 563 386 975 20 74 48 176 62 225
63 225 246 976 298 1220 31 149 58 276 61 283 2 9 54 12 212 12 156 0 212 3
220 13 11 13 42 124 42 151 0 14 -27 16 -218 18 l-218 3 47 285 c65 394 112
617 141 682 32 70 91 136 143 159 55 25 119 25 145 -1 26 -26 25 -40 -5 -100
-62 -123 0 -234 131 -234 161 0 228 208 113 354 -59 74 -145 113 -264 118
-160 7 -284 -44 -405 -167 -113 -115 -204 -291 -330 -641 -79 -220 -122 -311
-172 -366 -51 -55 -97 -69 -269 -86 l-128 -12 -19 -80 c-10 -45 -17 -84 -15
-88 2 -5 101 -8 219 -8 l214 0 -5 -22 c-3 -13 -32 -133 -64 -268 -154 -636
-245 -1030 -302 -1315 -34 -170 -66 -314 -70 -318 -12 -14 -165 20 -231 52
-107 51 -181 139 -273 321 -27 52 -335 779 -685 1615 l-636 1520 -46 3 c-25 2
-48 -1 -51 -5z m206 -1533 l293 -695 -595 -3 c-327 -1 -596 0 -599 2 -3 4 534
1262 587 1374 8 19 17 30 19 25 1 -4 134 -321 295 -703z"/>
</g>
</svg>
